AmstelvarAlpha-wdth-152.ufo
<glyph name="numbersign" format="1">
  <advance width="719"/>
  <unicode hex="0023"/>
  <outline>
    <contour>
      <point x="10" y="468" type="line"/>
      <point x="10" y="616" type="line"/>
      <point x="681" y="616" type="line"/>
      <point x="681" y="468" type="line"/>
    </contour>
    <contour>
      <point x="39" y="868" type="line"/>
      <point x="39" y="1016" type="line"/>
      <point x="709" y="1016" type="line"/>
      <point x="709" y="868" type="line"/>
    </contour>
    <contour>
      <point x="41" y="-57" type="line"/>
      <point x="303" y="1533" type="line"/>
      <point x="405" y="1518" type="line"/>
      <point x="144" y="-72" type="line"/>
    </contour>
    <contour>
      <point x="315" y="-57" type="line"/>
      <point x="577" y="1533" type="line"/>
      <point x="679" y="1518" type="line"/>
      <point x="418" y="-72" type="line"/>
    </contour>
  </outline>
</glyph>
<glyph name="percent" format="1">
  <advance width="1200"/>
  <unicode hex="0025"/>
  <outline>
    <contour>
      <point x="26" y="1066" type="qcurve" smooth="yes"/>
      <point x="26" y="1285"/>
      <point x="165" y="1521"/>
      <point x="278" y="1521" type="qcurve" smooth="yes"/>
      <point x="390" y="1521"/>
      <point x="530" y="1300"/>
      <point x="530" y="1068" type="qcurve" smooth="yes"/>
      <point x="530" y="845"/>
      <point x="392" y="602"/>
      <point x="280" y="602" type="qcurve" smooth="yes"/>
      <point x="168" y="602"/>
      <point x="26" y="827"/>
    </contour>
    <contour>
      <point x="164" y="1068" type="qcurve" smooth="yes"/>
      <point x="164" y="840"/>
      <point x="220" y="710"/>
      <point x="277" y="710" type="qcurve" smooth="yes"/>
      <point x="337" y="710"/>
      <point x="391" y="829"/>
      <point x="391" y="1065" type="qcurve" smooth="yes"/>
      <point x="391" y="1281"/>
      <point x="334" y="1409"/>
      <point x="278" y="1409" type="qcurve" smooth="yes"/>
      <point x="218" y="1409"/>
      <point x="164" y="1299"/>
    </contour>
    <contour>
      <point x="257" y="22" type="line"/>
      <point x="870" y="1525" type="line"/>
      <point x="947" y="1493" type="line"/>
      <point x="334" y="-11" type="line"/>
    </contour>
    <contour>
      <point x="671" y="429" type="qcurve" smooth="yes"/>
      <point x="671" y="649"/>
      <point x="810" y="892"/>
      <point x="922" y="892" type="qcurve" smooth="yes"/>
      <point x="1034" y="892"/>
      <point x="1175" y="664"/>
      <point x="1175" y="430" type="qcurve" smooth="yes"/>
      <point x="1175" y="214"/>
      <point x="1037" y="-24"/>
      <point x="924" y="-24" type="qcurve" smooth="yes"/>
      <point x="812" y="-24"/>
      <point x="671" y="196"/>
    </contour>
    <contour>
      <point x="808" y="440" type="qcurve" smooth="yes"/>
      <point x="808" y="213"/>
      <point x="865" y="84"/>
      <point x="923" y="84" type="qcurve" smooth="yes"/>
      <point x="982" y="84"/>
      <point x="1036" y="192"/>
      <point x="1036" y="436" type="qcurve" smooth="yes"/>
      <point x="1036" y="651"/>
      <point x="980" y="781"/>
      <point x="922" y="781" type="qcurve" smooth="yes"/>
      <point x="861" y="781"/>
      <point x="808" y="670"/>
    </contour>
  </outline>
</glyph>
<glyph name="ampersand" format="1">
  <advance width="647"/>
  <unicode hex="0026"/>
  <outline>
    <contour>
      <point x="21" y="390" type="qcurve" smooth="yes"/>
      <point x="21" y="560"/>
      <point x="172" y="764"/>
      <point x="266" y="788" type="qcurve"/>
      <point x="173" y="801"/>
      <point x="66" y="982"/>
      <point x="66" y="1152" type="qcurve" smooth="yes"/>
      <point x="66" y="1334"/>
      <point x="204" y="1509"/>
      <point x="308" y="1509" type="qcurve" smooth="yes"/>
      <point x="374" y="1509"/>
      <point x="476" y="1452"/>
      <point x="517" y="1387" type="qcurve"/>
      <point x="474" y="1277" type="line"/>
      <point x="451" y="1346"/>
      <point x="387" y="1392"/>
      <point x="335" y="1392" type="qcurve" smooth="yes"/>
      <point x="278" y="1392"/>
      <point x="218" y="1298"/>
      <point x="218" y="1152" type="qcurve" smooth="yes"/>
      <point x="218" y="1010"/>
      <point x="300" y="844"/>
      <point x="386" y="844" type="qcurve" smooth="yes"/>
      <point x="443" y="844"/>
      <point x="449" y="840"/>
      <point x="452" y="781" type="qcurve"/>
      <point x="450" y="732"/>
      <point x="437" y="725"/>
      <point x="371" y="725" type="qcurve" smooth="yes"/>
      <point x="291" y="725"/>
      <point x="173" y="560"/>
      <point x="173" y="399" type="qcurve" smooth="yes"/>
      <point x="173" y="233"/>
      <point x="254" y="95"/>
      <point x="329" y="95" type="qcurve" smooth="yes"/>
      <point x="400" y="95"/>
      <point x="474" y="152"/>
      <point x="492" y="204" type="qcurve"/>
      <point x="557" y="167" type="line"/>
      <point x="523" y="83"/>
      <point x="390" y="-16"/>
      <point x="312" y="-16" type="qcurve" smooth="yes"/>
      <point x="183" y="-16"/>
      <point x="21" y="189"/>
    </contour>
    <contour>
      <point x="450" y="1347" type="line"/>
      <point x="506" y="1487" type="line"/>
      <point x="577" y="1487" type="line"/>
      <point x="577" y="1133" type="line"/>
      <point x="491" y="1133" type="line"/>
    </contour>
    <contour>
      <point x="480" y="149" type="line"/>
      <point x="545" y="468" type="line"/>
      <point x="631" y="468" type="line"/>
      <point x="617" y="0" type="line"/>
      <point x="541" y="0" type="line"/>
    </contour>
  </outline>
</glyph>
<glyph name="parenright" format="1">
  <advance width="398"/>
  <unicode hex="0029"/>
  <outline>
    <contour>
      <point x="371" y="672" type="qcurve" smooth="yes"/>
      <point x="371" y="412"/>
      <point x="184" y="-37"/>
      <point x="83" y="-181" type="qcurve"/>
      <point x="8" y="-132" type="line"/>
      <point x="92" y="21"/>
      <point x="208" y="432"/>
      <point x="208" y="672" type="qcurve" smooth="yes"/>
      <point x="208" y="912"/>
      <point x="88" y="1338"/>
      <point x="7" y="1475" type="qcurve"/>
      <point x="83" y="1525" type="line"/>
      <point x="182" y="1400"/>
      <point x="371" y="924"/>
    </contour>
  </outline>
</glyph>
<glyph name="asterisk" format="1">
  <advance width="586"/>
  <unicode hex="002A"/>
  <outline>
    <contour>
      <point x="293" y="884" type="qcurve" smooth="yes"/>
      <point x="258" y="884"/>
      <point x="222" y="931"/>
      <point x="231" y="968" type="qcurve" smooth="yes"/>
      <point x="269" y="1155" type="line"/>
      <point x="265" y="1159" type="line"/>
      <point x="123" y="1032" type="line"/>
      <point x="101" y="1010"/>
      <point x="41" y="1012"/>
      <point x="22" y="1045" type="qcurve" smooth="yes"/>
      <point x="3" y="1078"/>
      <point x="32" y="1133"/>
      <point x="62" y="1141" type="qcurve"/>
      <point x="239" y="1202" type="line"/>
      <point x="239" y="1207" type="line"/>
      <point x="62" y="1269" type="line"/>
      <point x="32" y="1277"/>
      <point x="3" y="1332"/>
      <point x="22" y="1366" type="qcurve" smooth="yes"/>
      <point x="41" y="1399"/>
      <point x="101" y="1400"/>
      <point x="123" y="1378" type="qcurve"/>
      <point x="264" y="1251" type="line"/>
      <point x="268" y="1255" type="line"/>
      <point x="231" y="1443" type="line" smooth="yes"/>
      <point x="222" y="1481"/>
      <point x="259" y="1527"/>
      <point x="293" y="1527" type="qcurve" smooth="yes"/>
      <point x="328" y="1527"/>
      <point x="364" y="1480"/>
      <point x="355" y="1443" type="qcurve" smooth="yes"/>
      <point x="318" y="1255" type="line"/>
      <point x="322" y="1251" type="line"/>
      <point x="463" y="1378" type="line"/>
      <point x="485" y="1400"/>
      <point x="545" y="1399"/>
      <point x="564" y="1365" type="qcurve" smooth="yes"/>
      <point x="583" y="1332"/>
      <point x="554" y="1277"/>
      <point x="524" y="1269" type="qcurve"/>
      <point x="347" y="1208" type="line"/>
      <point x="348" y="1203" type="line"/>
      <point x="524" y="1141" type="line"/>
      <point x="555" y="1133"/>
      <point x="583" y="1078"/>
      <point x="565" y="1044" type="qcurve" smooth="yes"/>
      <point x="546" y="1011"/>
      <point x="485" y="1010"/>
      <point x="463" y="1032" type="qcurve" smooth="yes"/>
      <point x="323" y="1159" type="line"/>
      <point x="319" y="1155" type="line"/>
      <point x="355" y="968" type="line" smooth="yes"/>
      <point x="364" y="931"/>
      <point x="330" y="884"/>
    </contour>
  </outline>
</glyph>
<glyph name="plus" format="1">
  <advance width="650"/>
  <unicode hex="002B"/>
  <outline>
    <contour>
      <point x="51" y="561" type="line"/>
      <point x="51" y="703" type="line"/>
      <point x="599" y="703" type="line"/>
      <point x="599" y="561" type="line"/>
    </contour>
    <contour>
      <point x="260" y="357" type="line"/>
      <point x="260" y="907" type="line"/>
      <point x="390" y="907" type="line"/>
      <point x="390" y="357" type="line"/>
    </contour>
  </outline>
</glyph>
<glyph name="comma" format="1">
  <advance width="350"/>
  <unicode hex="002C"/>
  <outline>
    <contour>
      <point x="45" y="-231" type="line"/>
      <point x="88" y="-195"/>
      <point x="170" y="-79"/>
      <point x="184" y="-13" type="qcurve"/>
      <point x="123" y="-13"/>
      <point x="62" y="51"/>
      <point x="62" y="101" type="qcurve" smooth="yes"/>
      <point x="62" y="150"/>
      <point x="126" y="215"/>
      <point x="177" y="215" type="qcurve" smooth="yes"/>
      <point x="225" y="215"/>
      <point x="292" y="152"/>
      <point x="292" y="85" type="qcurve" smooth="yes"/>
      <point x="292" y="-13"/>
      <point x="168" y="-209"/>
      <point x="79" y="-270" type="qcurve"/>
    </contour>
  </outline>
</glyph>
<glyph name="period" format="1">
  <advance width="350"/>
  <unicode hex="002E"/>
  <outline>
    <contour>
      <point x="52" y="96" type="qcurve" smooth="yes"/>
      <point x="52" y="144"/>
      <point x="120" y="214"/>
      <point x="174" y="214" type="qcurve" smooth="yes"/>
      <point x="229" y="214"/>
      <point x="299" y="144"/>
      <point x="299" y="96" type="qcurve" smooth="yes"/>
      <point x="299" y="49"/>
      <point x="229" y="-21"/>
      <point x="174" y="-21" type="qcurve" smooth="yes"/>
      <point x="120" y="-21"/>
      <point x="52" y="49"/>
    </contour>
  </outline>
</glyph>
<glyph name="nine" format="1">
  <advance width="646"/>
  <unicode hex="0039"/>
  <outline>
    <contour>
      <point x="19" y="1026" type="qcurve" smooth="yes"/>
      <point x="19" y="1273"/>
      <point x="178" y="1520"/>
      <point x="309" y="1520" type="qcurve" smooth="yes"/>
      <point x="442" y="1520"/>
      <point x="620" y="1228"/>
      <point x="620" y="841" type="qcurve" smooth="yes"/>
      <point x="620" y="400"/>
      <point x="387" y="8"/>
      <point x="159" y="-30" type="qcurve"/>
      <point x="159" y="87" type="line"/>
      <point x="320" y="124"/>
      <point x="463" y="415"/>
      <point x="463" y="832" type="qcurve" smooth="yes"/>
      <point x="462" y="1270"/>
      <point x="382" y="1408"/>
      <point x="313" y="1408" type="qcurve" smooth="yes"/>
      <point x="247" y="1408"/>
      <point x="172" y="1302"/>
      <point x="172" y="1041" type="qcurve" smooth="yes"/>
      <point x="172" y="801"/>
      <point x="248" y="692"/>
      <point x="318" y="692" type="qcurve" smooth="yes"/>
      <point x="339" y="692"/>
      <point x="382" y="702"/>
      <point x="394" y="709" type="qcurve"/>
      <point x="402" y="640" type="line"/>
      <point x="387" y="612"/>
      <point x="323" y="573"/>
      <point x="282" y="573" type="qcurve" smooth="yes"/>
      <point x="162" y="573"/>
      <point x="19" y="786"/>
    </contour>
  </outline>
</glyph>
<glyph name="less" format="1">
  <advance width="444"/>
  <unicode hex="003C"/>
  <outline>
    <contour>
      <point x="36" y="634" type="qcurve"/>
      <point x="36" y="634"/>
      <point x="262" y="977"/>
      <point x="303" y="1039" type="qcurve" smooth="yes"/>
      <point x="340" y="1091"/>
      <point x="431" y="1037"/>
      <point x="397" y="981" type="qcurve" smooth="yes"/>
      <point x="315" y="846"/>
      <point x="187" y="635"/>
      <point x="187" y="635" type="qcurve"/>
      <point x="187" y="635"/>
      <point x="315" y="427"/>
      <point x="397" y="292" type="qcurve" smooth="yes"/>
      <point x="431" y="237"/>
      <point x="340" y="182"/>
      <point x="304" y="234" type="qcurve" smooth="yes"/>
      <point x="262" y="296"/>
      <point x="36" y="634"/>
    </contour>
  </outline>
</glyph>
<glyph name="greater" format="1">
  <advance width="444"/>
  <unicode hex="003E"/>
  <outline>
    <contour>
      <point x="409" y="634" type="qcurve"/>
      <point x="409" y="634"/>
      <point x="182" y="296"/>
      <point x="141" y="234" type="qcurve" smooth="yes"/>
      <point x="104" y="182"/>
      <point x="14" y="237"/>
      <point x="48" y="292" type="qcurve" smooth="yes"/>
      <point x="129" y="427"/>
      <point x="257" y="635"/>
      <point x="257" y="635" type="qcurve"/>
      <point x="257" y="635"/>
      <point x="129" y="846"/>
      <point x="47" y="981" type="qcurve" smooth="yes"/>
      <point x="13" y="1037"/>
      <point x="105" y="1091"/>
      <point x="141" y="1039" type="qcurve" smooth="yes"/>
      <point x="183" y="977"/>
      <point x="409" y="634"/>
    </contour>
  </outline>
</glyph>
<glyph name="A" format="1">
  <advance width="762"/>
  <unicode hex="0041"/>
  <outline>
    <contour>
      <point x="-11" y="0" type="line"/>
      <point x="-11" y="93" type="line"/>
      <point x="74" y="128" type="line"/>
      <point x="140" y="532" type="line"/>
      <point x="291" y="1507" type="line"/>
      <point x="447" y="1507" type="line"/>
      <point x="605" y="548" type="line"/>
      <point x="681" y="129" type="line"/>
      <point x="770" y="93" type="line"/>
      <point x="770" y="0" type="line"/>
      <point x="432" y="0" type="line"/>
      <point x="432" y="93" type="line"/>
      <point x="525" y="126" type="line"/>
      <point x="468" y="562" type="line"/>
      <point x="358" y="1234" type="line"/>
      <point x="255" y="564" type="line"/>
      <point x="199" y="124" type="line"/>
      <point x="287" y="93" type="line"/>
      <point x="287" y="0" type="line"/>
    </contour>
    <contour>
      <point x="185" y="456" type="line"/>
      <point x="204" y="567" type="line"/>
      <point x="362" y="557" type="line"/>
      <point x="534" y="568" type="line"/>
      <point x="554" y="456" type="line"/>
    </contour>
  </outline>
</glyph>
<glyph name="B" format="1">
  <advance width="730"/>
  <unicode hex="0042"/>
  <outline>
    <contour>
      <point x="28" y="0" type="line"/>
      <point x="28" y="93" type="line"/>
      <point x="125" y="130" type="line"/>
      <point x="127" y="785" type="line"/>
      <point x="125" y="1359" type="line"/>
      <point x="28" y="1394" type="line"/>
      <point x="28" y="1500" type="line"/>
      <point x="329" y="1500" type="line" smooth="yes"/>
      <point x="475" y="1500"/>
      <point x="627" y="1316"/>
      <point x="627" y="1166" type="qcurve" smooth="yes"/>
      <point x="627" y="1025"/>
      <point x="532" y="847"/>
      <point x="460" y="826" type="qcurve"/>
      <point x="460" y="820" type="line"/>
      <point x="555" y="796"/>
      <point x="700" y="605"/>
      <point x="700" y="434" type="qcurve" smooth="yes"/>
      <point x="700" y="247"/>
      <point x="516" y="0"/>
      <point x="349" y="0" type="qcurve" smooth="yes"/>
    </contour>
    <contour>
      <point x="277" y="127" type="line"/>
      <point x="302" y="106" type="line"/>
      <point x="350" y="106" type="line" smooth="yes"/>
      <point x="450" y="107"/>
      <point x="541" y="269"/>
      <point x="541" y="440" type="qcurve" smooth="yes"/>
      <point x="541" y="588"/>
      <point x="458" y="745"/>
      <point x="377" y="745" type="qcurve" smooth="yes"/>
      <point x="280" y="745" type="line"/>
      <point x="276" y="737" type="line"/>
    </contour>
    <contour>
      <point x="276" y="869" type="line"/>
      <point x="277" y="850" type="line"/>
      <point x="342" y="850" type="line" smooth="yes"/>
      <point x="416" y="850"/>
      <point x="478" y="994"/>
      <point x="478" y="1133" type="qcurve" smooth="yes"/>
      <point x="478" y="1265"/>
      <point x="417" y="1380"/>
      <point x="346" y="1380" type="qcurve" smooth="yes"/>
      <point x="300" y="1380" type="line"/>
      <point x="278" y="1366" type="line"/>
    </contour>
  </outline>
</glyph>
<glyph name="C" format="1">
  <advance width="709"/>
  <unicode hex="0043"/>
  <outline>
    <contour>
      <point x="27" y="724" type="qcurve" smooth="yes"/>
      <point x="27" y="1186"/>
      <point x="236" y="1510"/>
      <point x="398" y="1510" type="qcurve" smooth="yes"/>
      <point x="473" y="1510"/>
      <point x="582" y="1441"/>
      <point x="615" y="1391" type="qcurve"/>
      <point x="542" y="1297" type="line"/>
      <point x="511" y="1344"/>
      <point x="438" y="1392"/>
      <point x="395" y="1392" type="qcurve" smooth="yes"/>
      <point x="295" y="1392"/>
      <point x="190" y="1209"/>
      <point x="191" y="769" type="qcurve" smooth="yes"/>
      <point x="191" y="353"/>
      <point x="311" y="110"/>
      <point x="422" y="110" type="qcurve" smooth="yes"/>
      <point x="500" y="110"/>
      <point x="596" y="194"/>
      <point x="623" y="294" type="qcurve"/>
      <point x="702" y="255" type="line"/>
      <point x="665" y="129"/>
      <point x="524" y="-19"/>
      <point x="404" y="-19" type="qcurve" smooth="yes"/>
      <point x="235" y="-19"/>
      <point x="27" y="295"/>
    </contour>
    <contour>
      <point x="522" y="1321" type="line"/>
      <point x="599" y="1488" type="line"/>
      <point x="667" y="1488" type="line"/>
      <point x="667" y="1126" type="line"/>
      <point x="581" y="1126" type="line"/>
    </contour>
  </outline>
</glyph>
<glyph name="E" format="1">
  <advance width="683"/>
  <unicode hex="0045"/>
  <outline>
    <contour>
      <point x="28" y="0" type="line"/>
      <point x="28" y="93" type="line"/>
      <point x="125" y="127" type="line"/>
      <point x="127" y="783" type="line"/>
      <point x="125" y="1359" type="line"/>
      <point x="28" y="1395" type="line"/>
      <point x="28" y="1500" type="line"/>
      <point x="599" y="1500" type="line"/>
      <point x="599" y="1225" type="line"/>
      <point x="502" y="1225" type="line"/>
      <point x="461" y="1391" type="line"/>
      <point x="323" y="1391" type="line"/>
      <point x="277" y="1363" type="line"/>
      <point x="275" y="783" type="line"/>
      <point x="277" y="128" type="line"/>
      <point x="313" y="100" type="line"/>
      <point x="504" y="100" type="line"/>
      <point x="580" y="305" type="line"/>
      <point x="676" y="305" type="line"/>
      <point x="638" y="0" type="line"/>
    </contour>
    <contour>
      <point x="208" y="742" type="line"/>
      <point x="208" y="830" type="line"/>
      <point x="433" y="840" type="line"/>
      <point x="457" y="960" type="line"/>
      <point x="543" y="960" type="line"/>
      <point x="543" y="612" type="line"/>
      <point x="457" y="612" type="line"/>
      <point x="433" y="732" type="line"/>
    </contour>
  </outline>
</glyph>
<glyph name="H" format="1">
  <advance width="857"/>
  <unicode hex="0048"/>
  <outline>
    <contour>
      <point x="28" y="0" type="line"/>
      <point x="28" y="93" type="line"/>
      <point x="125" y="129" type="line"/>
      <point x="127" y="759" type="line"/>
      <point x="125" y="1359" type="line"/>
      <point x="28" y="1394" type="line"/>
      <point x="28" y="1500" type="line"/>
      <point x="368" y="1500" type="line"/>
      <point x="368" y="1394" type="line"/>
      <point x="278" y="1359" type="line"/>
      <point x="276" y="759" type="line"/>
      <point x="278" y="129" type="line"/>
      <point x="368" y="93" type="line"/>
      <point x="368" y="0" type="line"/>
    </contour>
    <contour>
      <point x="207" y="721" type="line"/>
      <point x="207" y="843" type="line"/>
      <point x="428" y="836" type="line"/>
      <point x="649" y="843" type="line"/>
      <point x="649" y="721" type="line"/>
      <point x="428" y="721" type="line"/>
    </contour>
    <contour>
      <point x="489" y="0" type="line"/>
      <point x="489" y="93" type="line"/>
      <point x="580" y="129" type="line"/>
      <point x="582" y="759" type="line"/>
      <point x="580" y="1359" type="line"/>
      <point x="489" y="1394" type="line"/>
      <point x="489" y="1500" type="line"/>
      <point x="829" y="1500" type="line"/>
      <point x="829" y="1394" type="line"/>
      <point x="734" y="1359" type="line"/>
      <point x="732" y="759" type="line"/>
      <point x="734" y="129" type="line"/>
      <point x="829" y="93" type="line"/>
      <point x="829" y="0" type="line"/>
    </contour>
  </outline>
</glyph>
<glyph name="I" format="1">
  <advance width="409"/>
  <unicode hex="0049"/>
  <outline>
    <contour>
      <point x="28" y="0" type="line"/>
      <point x="28" y="93" type="line"/>
      <point x="127" y="129" type="line"/>
      <point x="129" y="754" type="line"/>
      <point x="127" y="1359" type="line"/>
      <point x="28" y="1394" type="line"/>
      <point x="28" y="1500" type="line"/>
      <point x="381" y="1500" type="line"/>
      <point x="381" y="1394" type="line"/>
      <point x="281" y="1359" type="line"/>
      <point x="279" y="754" type="line"/>
      <point x="281" y="130" type="line"/>
      <point x="381" y="93" type="line"/>
      <point x="381" y="0" type="line"/>
    </contour>
  </outline>
</glyph>
<glyph name="L" format="1">
  <advance width="688"/>
  <unicode hex="004C"/>
  <outline>
    <contour>
      <point x="28" y="0" type="line"/>
      <point x="28" y="93" type="line"/>
      <point x="125" y="128" type="line"/>
      <point x="127" y="754" type="line"/>
      <point x="125" y="1359" type="line"/>
      <point x="28" y="1394" type="line"/>
      <point x="28" y="1500" type="line"/>
      <point x="387" y="1500" type="line"/>
      <point x="387" y="1395" type="line"/>
      <point x="278" y="1359" type="line"/>
      <point x="276" y="754" type="line"/>
      <point x="278" y="128" type="line"/>
      <point x="310" y="100" type="line"/>
      <point x="511" y="100" type="line"/>
      <point x="594" y="327" type="line"/>
      <point x="688" y="327" type="line"/>
      <point x="647" y="0" type="line"/>
    </contour>
  </outline>
</glyph>
<glyph name="N" format="1">
  <advance width="762"/>
  <unicode hex="004E"/>
  <outline>
    <contour>
      <point x="28" y="0" type="line"/>
      <point x="28" y="93" type="line"/>
      <point x="114" y="128" type="line"/>
      <point x="116" y="754" type="line"/>
      <point x="114" y="1360" type="line"/>
      <point x="28" y="1394" type="line"/>
      <point x="28" y="1500" type="line"/>
      <point x="277" y="1500" type="line"/>
      <point x="429" y="916" type="line"/>
      <point x="552" y="454" type="line"/>
      <point x="549" y="802" type="line"/>
      <point x="547" y="1360" type="line"/>
      <point x="460" y="1394" type="line"/>
      <point x="460" y="1500" type="line"/>
      <point x="738" y="1500" type="line"/>
      <point x="738" y="1394" type="line"/>
      <point x="658" y="1360" type="line"/>
      <point x="656" y="754" type="line"/>
      <point x="653" y="0" type="line"/>
      <point x="524" y="0" type="line"/>
      <point x="363" y="574" type="line"/>
      <point x="219" y="1161" type="line"/>
      <point x="223" y="654" type="line"/>
      <point x="225" y="128" type="line"/>
      <point x="318" y="93" type="line"/>
      <point x="318" y="0" type="line"/>
    </contour>
  </outline>
</glyph>
<glyph name="O" format="1">
  <advance width="801"/>
  <unicode hex="004F"/>
  <outline>
    <contour>
      <point x="27" y="748" type="qcurve" smooth="yes"/>
      <point x="27" y="1151"/>
      <point x="223" y="1516"/>
      <point x="400" y="1516" type="qcurve" smooth="yes"/>
      <point x="577" y="1516"/>
      <point x="774" y="1154"/>
      <point x="774" y="757" type="qcurve" smooth="yes"/>
      <point x="774" y="379"/>
      <point x="583" y="-19"/>
      <point x="403" y="-19" type="qcurve" smooth="yes"/>
      <point x="226" y="-19"/>
      <point x="27" y="378"/>
    </contour>
    <contour>
      <point x="190" y="774" type="qcurve" smooth="yes"/>
      <point x="190" y="374"/>
      <point x="298" y="102"/>
      <point x="401" y="102" type="qcurve" smooth="yes"/>
      <point x="508" y="102"/>
      <point x="611" y="364"/>
      <point x="611" y="753" type="qcurve" smooth="yes"/>
      <point x="611" y="1133"/>
      <point x="509" y="1388"/>
      <point x="401" y="1388" type="qcurve" smooth="yes"/>
      <point x="293" y="1388"/>
      <point x="190" y="1173"/>
    </contour>
  </outline>
</glyph>
<glyph name="P" format="1">
  <advance width="715"/>
  <unicode hex="0050"/>
  <outline>
    <contour>
      <point x="28" y="0" type="line"/>
      <point x="28" y="93" type="line"/>
      <point x="125" y="131" type="line"/>
      <point x="127" y="756" type="line"/>
      <point x="125" y="1359" type="line"/>
      <point x="28" y="1394" type="line"/>
      <point x="28" y="1500" type="line"/>
      <point x="391" y="1500" type="line" smooth="yes"/>
      <point x="540" y="1500"/>
      <point x="699" y="1297"/>
      <point x="699" y="1083" type="qcurve" smooth="yes"/>
      <point x="699" y="867"/>
      <point x="532" y="625"/>
      <point x="386" y="625" type="qcurve" smooth="yes"/>
      <point x="323" y="625"/>
      <point x="237" y="645"/>
      <point x="208" y="654" type="qcurve"/>
      <point x="216" y="752" type="line"/>
      <point x="271" y="738"/>
      <point x="323" y="730"/>
      <point x="367" y="730" type="qcurve" smooth="yes"/>
      <point x="447" y="730"/>
      <point x="541" y="884"/>
      <point x="541" y="1085" type="qcurve" smooth="yes"/>
      <point x="541" y="1254"/>
      <point x="453" y="1391"/>
      <point x="376" y="1391" type="qcurve" smooth="yes"/>
      <point x="308" y="1391" type="line"/>
      <point x="277" y="1367" type="line"/>
      <point x="276" y="765" type="line"/>
      <point x="278" y="127" type="line"/>
      <point x="381" y="93" type="line"/>
      <point x="381" y="0" type="line"/>
    </contour>
  </outline>
</glyph>
<glyph name="Q" format="1">
  <advance width="820"/>
  <unicode hex="0051"/>
  <outline>
    <contour>
      <point x="27" y="749" type="qcurve" smooth="yes"/>
      <point x="27" y="1135"/>
      <point x="221" y="1516"/>
      <point x="401" y="1516" type="qcurve" smooth="yes"/>
      <point x="579" y="1516"/>
      <point x="775" y="1150"/>
      <point x="775" y="756" type="qcurve" smooth="yes"/>
      <point x="775" y="363"/>
      <point x="572" y="-9"/>
      <point x="401" y="-9" type="qcurve" smooth="yes"/>
      <point x="224" y="-9"/>
      <point x="27" y="369"/>
    </contour>
    <contour>
      <point x="189" y="772" type="qcurve" smooth="yes"/>
      <point x="190" y="356"/>
      <point x="298" y="100"/>
      <point x="399" y="100" type="qcurve" smooth="yes"/>
      <point x="505" y="100"/>
      <point x="611" y="322"/>
      <point x="612" y="753" type="qcurve"/>
      <point x="612" y="1163"/>
      <point x="501" y="1390"/>
      <point x="401" y="1390" type="qcurve" smooth="yes"/>
      <point x="295" y="1390"/>
      <point x="189" y="1179"/>
    </contour>
    <contour>
      <point x="71" y="-225" type="line"/>
      <point x="112" y="-137"/>
      <point x="237" y="-44"/>
      <point x="293" y="-42" type="qcurve"/>
      <point x="584" y="-167" type="line"/>
      <point x="629" y="-168"/>
      <point x="702" y="-119"/>
      <point x="726" y="-65" type="qcurve"/>
      <point x="786" y="-105" type="line"/>
      <point x="754" y="-192"/>
      <point x="650" y="-310"/>
      <point x="558" y="-312" type="qcurve"/>
      <point x="280" y="-182" type="line"/>
      <point x="236" y="-181"/>
      <point x="161" y="-220"/>
      <point x="123" y="-274" type="qcurve"/>
    </contour>
    <contour>
      <point x="233" y="-115" type="line"/>
      <point x="335" y="29" type="line"/>
      <point x="347" y="44"/>
      <point x="367" y="64"/>
      <point x="379" y="83" type="qcurve"/>
      <point x="406" y="76"/>
      <point x="434" y="69"/>
      <point x="458" y="50" type="qcurve"/>
      <point x="446" y="29"/>
      <point x="419" y="2"/>
      <point x="402" y="-13" type="qcurve"/>
      <point x="307" y="-157" type="line"/>
    </contour>
  </outline>
</glyph>
<glyph name="R" format="1">
  <advance width="765"/>
  <unicode hex="0052"/>
  <outline>
    <contour>
      <point x="28" y="0" type="line"/>
      <point x="28" y="93" type="line"/>
      <point x="125" y="130" type="line"/>
      <point x="127" y="772" type="line"/>
      <point x="125" y="1359" type="line"/>
      <point x="28" y="1394" type="line"/>
      <point x="28" y="1500" type="line"/>
      <point x="378" y="1500" type="line" smooth="yes"/>
      <point x="518" y="1500"/>
      <point x="658" y="1345"/>
      <point x="658" y="1164" type="qcurve" smooth="yes"/>
      <point x="658" y="984"/>
      <point x="516" y="778"/>
      <point x="393" y="778" type="qcurve" smooth="yes"/>
      <point x="333" y="778"/>
      <point x="248" y="784"/>
      <point x="208" y="790" type="qcurve"/>
      <point x="207" y="882" type="line"/>
      <point x="284" y="879" type="line"/>
      <point x="349" y="879" type="line" smooth="yes"/>
      <point x="430" y="879"/>
      <point x="498" y="1007"/>
      <point x="498" y="1152" type="qcurve" smooth="yes"/>
      <point x="498" y="1291"/>
      <point x="435" y="1389"/>
      <point x="369" y="1389" type="qcurve" smooth="yes"/>
      <point x="307" y="1389" type="line"/>
      <point x="280" y="1369" type="line"/>
      <point x="276" y="764" type="line"/>
      <point x="278" y="130" type="line"/>
      <point x="376" y="93" type="line"/>
      <point x="376" y="0" type="line"/>
    </contour>
    <contour>
      <point x="341" y="816" type="line"/>
      <point x="473" y="844" type="line"/>
      <point x="643" y="208" type="line"/>
      <point x="672" y="144"/>
      <point x="727" y="100"/>
      <point x="775" y="93" type="qcurve"/>
      <point x="775" y="0" type="line"/>
      <point x="595" y="0" type="line"/>
      <point x="551" y="43" type="line"/>
    </contour>
  </outline>
</glyph>
<glyph name="S" format="1">
  <advance width="618"/>
  <unicode hex="0053"/>
  <outline>
    <contour>
      <point x="18" y="1" type="line"/>
      <point x="18" y="369" type="line"/>
      <point x="104" y="369" type="line"/>
      <point x="166" y="163" type="line"/>
      <point x="87" y="1" type="line"/>
    </contour>
    <contour>
      <point x="33" y="1200" type="qcurve" smooth="yes"/>
      <point x="33" y="1347"/>
      <point x="164" y="1508"/>
      <point x="274" y="1508" type="qcurve" smooth="yes"/>
      <point x="345" y="1508"/>
      <point x="442" y="1446"/>
      <point x="476" y="1391" type="qcurve"/>
      <point x="409" y="1303" type="line"/>
      <point x="383" y="1346"/>
      <point x="321" y="1392"/>
      <point x="274" y="1392" type="qcurve" smooth="yes"/>
      <point x="215" y="1392"/>
      <point x="156" y="1321"/>
      <point x="156" y="1249" type="qcurve" smooth="yes"/>
      <point x="156" y="1152"/>
      <point x="247" y="970"/>
      <point x="371" y="840" type="qcurve" smooth="yes"/>
      <point x="484" y="723"/>
      <point x="601" y="479"/>
      <point x="601" y="324" type="qcurve" smooth="yes"/>
      <point x="601" y="159"/>
      <point x="453" y="-16"/>
      <point x="335" y="-16" type="qcurve" smooth="yes"/>
      <point x="229" y="-16"/>
      <point x="91" y="93"/>
      <point x="48" y="207" type="qcurve"/>
      <point x="133" y="265" type="line"/>
      <point x="171" y="169"/>
      <point x="265" y="98"/>
      <point x="333" y="98" type="qcurve" smooth="yes"/>
      <point x="394" y="98"/>
      <point x="472" y="200"/>
      <point x="472" y="292" type="qcurve" smooth="yes"/>
      <point x="472" y="406"/>
      <point x="363" y="606"/>
      <point x="246" y="725" type="qcurve" smooth="yes"/>
      <point x="121" y="851"/>
      <point x="33" y="1056"/>
    </contour>
    <contour>
      <point x="392" y="1322" type="line"/>
      <point x="467" y="1487" type="line"/>
      <point x="536" y="1487" type="line"/>
      <point x="536" y="1130" type="line"/>
      <point x="450" y="1130" type="line"/>
    </contour>
  </outline>
</glyph>
<glyph name="T" format="1">
  <advance width="716"/>
  <unicode hex="0054"/>
  <outline>
    <contour>
      <point x="15" y="1126" type="line"/>
      <point x="15" y="1500" type="line"/>
      <point x="700" y="1500" type="line"/>
      <point x="700" y="1126" type="line"/>
      <point x="605" y="1126" type="line"/>
      <point x="563" y="1404" type="line"/>
      <point x="444" y="1404" type="line"/>
      <point x="428" y="1390" type="line"/>
      <point x="431" y="754" type="line"/>
      <point x="433" y="130" type="line"/>
      <point x="531" y="93" type="line"/>
      <point x="531" y="0" type="line"/>
      <point x="178" y="0" type="line"/>
      <point x="178" y="93" type="line"/>
      <point x="279" y="130" type="line"/>
      <point x="281" y="754" type="line"/>
      <point x="284" y="1390" type="line"/>
      <point x="272" y="1404" type="line"/>
      <point x="152" y="1404" type="line"/>
      <point x="111" y="1126" type="line"/>
    </contour>
  </outline>
</glyph>
<glyph name="V" format="1">
  <advance width="758"/>
  <unicode hex="0056"/>
  <outline>
    <contour>
      <point x="-11" y="1400" type="line"/>
      <point x="-11" y="1500" type="line"/>
      <point x="318" y="1500" type="line"/>
      <point x="318" y="1400" type="line"/>
      <point x="234" y="1360" type="line"/>
      <point x="314" y="895" type="line"/>
      <point x="401" y="388" type="line"/>
      <point x="482" y="899" type="line"/>
      <point x="558" y="1366" type="line"/>
      <point x="473" y="1400" type="line"/>
      <point x="473" y="1500" type="line"/>
      <point x="777" y="1500" type="line"/>
      <point x="777" y="1400" type="line"/>
      <point x="689" y="1362" type="line"/>
      <point x="600" y="878" type="line"/>
      <point x="459" y="-2" type="line"/>
      <point x="312" y="-2" type="line"/>
      <point x="166" y="869" type="line"/>
      <point x="72" y="1361" type="line"/>
    </contour>
  </outline>
</glyph>
<glyph name="W" format="1">
  <advance width="1169"/>
  <unicode hex="0057"/>
  <outline>
    <contour>
      <point x="-12" y="1400" type="line"/>
      <point x="-12" y="1500" type="line"/>
      <point x="318" y="1500" type="line"/>
      <point x="318" y="1400" type="line"/>
      <point x="234" y="1360" type="line"/>
      <point x="307" y="880" type="line"/>
      <point x="386" y="379" type="line"/>
      <point x="476" y="858" type="line"/>
      <point x="543" y="1265" type="line"/>
      <point x="617" y="1033" type="line"/>
      <point x="574" y="798" type="line"/>
      <point x="439" y="-2" type="line"/>
      <point x="301" y="-2" type="line"/>
      <point x="164" y="854" type="line"/>
      <point x="71" y="1361" type="line"/>
    </contour>
    <contour>
      <point x="403" y="1402" type="line"/>
      <point x="403" y="1500" type="line"/>
      <point x="725" y="1500" type="line"/>
      <point x="725" y="1402" type="line"/>
      <point x="641" y="1362" type="line"/>
      <point x="715" y="865" type="line"/>
      <point x="792" y="380" type="line"/>
      <point x="874" y="884" type="line"/>
      <point x="943" y="1366" type="line"/>
      <point x="855" y="1400" type="line"/>
      <point x="855" y="1500" type="line"/>
      <point x="1175" y="1500" type="line"/>
      <point x="1175" y="1400" type="line"/>
      <point x="1084" y="1361" type="line"/>
      <point x="992" y="865" type="line"/>
      <point x="858" y="-2" type="line"/>
      <point x="717" y="-2" type="line"/>
      <point x="577" y="844" type="line"/>
      <point x="482" y="1363" type="line"/>
    </contour>
  </outline>
</glyph>
<glyph name="Y" format="1">
  <advance width="729"/>
  <unicode hex="0059"/>
  <outline>
    <contour>
      <point x="-12" y="1396" type="line"/>
      <point x="-12" y="1500" type="line"/>
      <point x="321" y="1500" type="line"/>
      <point x="321" y="1396" type="line"/>
      <point x="242" y="1360" type="line"/>
      <point x="319" y="1043" type="line"/>
      <point x="383" y="843" type="line"/>
      <point x="449" y="1050" type="line"/>
      <point x="530" y="1368" type="line"/>
      <point x="447" y="1396" type="line"/>
      <point x="447" y="1500" type="line"/>
      <point x="743" y="1500" type="line"/>
      <point x="743" y="1396" type="line"/>
      <point x="667" y="1369" type="line"/>
      <point x="555" y="1017" type="line"/>
      <point x="439" y="651" type="line"/>
      <point x="441" y="130" type="line"/>
      <point x="534" y="97" type="line"/>
      <point x="534" y="0" type="line"/>
      <point x="192" y="0" type="line"/>
      <point x="192" y="97" type="line"/>
      <point x="288" y="130" type="line"/>
      <point x="290" y="645" type="line"/>
      <point x="185" y="1003" type="line"/>
      <point x="71" y="1367" type="line"/>
    </contour>
  </outline>
</glyph>
<glyph name="bracketleft" format="1">
  <advance width="403"/>
  <unicode hex="005B"/>
  <outline>
    <contour>
      <point x="69" y="508" type="line"/>
      <point x="59" y="1369" type="line"/>
      <point x="39" y="1391" type="line"/>
      <point x="39" y="1500" type="line"/>
      <point x="375" y="1500" type="line"/>
      <point x="375" y="1390" type="line"/>
      <point x="209" y="1369" type="line"/>
      <point x="200" y="508" type="line"/>
      <point x="209" y="-349" type="line"/>
      <point x="375" y="-370" type="line"/>
      <point x="375" y="-480" type="line"/>
      <point x="39" y="-480" type="line"/>
      <point x="39" y="-371" type="line"/>
      <point x="59" y="-349" type="line"/>
    </contour>
  </outline>
</glyph>
<glyph name="bracketright" format="1">
  <advance width="403"/>
  <unicode hex="005D"/>
  <outline>
    <contour>
      <point x="334" y="508" type="line"/>
      <point x="343" y="-349" type="line"/>
      <point x="363" y="-371" type="line"/>
      <point x="363" y="-480" type="line"/>
      <point x="27" y="-480" type="line"/>
      <point x="27" y="-370" type="line"/>
      <point x="194" y="-349" type="line"/>
      <point x="203" y="508" type="line"/>
      <point x="194" y="1369" type="line"/>
      <point x="27" y="1390" type="line"/>
      <point x="27" y="1500" type="line"/>
      <point x="363" y="1500" type="line"/>
      <point x="363" y="1391" type="line"/>
      <point x="343" y="1369" type="line"/>
    </contour>
  </outline>
</glyph>
<glyph name="asciicircum" format="1">
  <advance width="676"/>
  <unicode hex="005E"/>
  <outline>
    <contour>
      <point x="332" y="1522" type="qcurve"/>
      <point x="332" y="1522"/>
      <point x="575" y="1145"/>
      <point x="614" y="1070" type="qcurve" smooth="yes"/>
      <point x="643" y="1017"/>
      <point x="567" y="970"/>
      <point x="537" y="1016" type="qcurve" smooth="yes"/>
      <point x="460" y="1139"/>
      <point x="333" y="1312"/>
      <point x="333" y="1312" type="qcurve"/>
      <point x="333" y="1312"/>
      <point x="216" y="1140"/>
      <point x="139" y="1017" type="qcurve" smooth="yes"/>
      <point x="109" y="970"/>
      <point x="33" y="1018"/>
      <point x="62" y="1070" type="qcurve" smooth="yes"/>
      <point x="101" y="1144"/>
      <point x="332" y="1522"/>
    </contour>
  </outline>
</glyph>
<glyph name="b" format="1">
  <advance width="672"/>
  <unicode hex="0062"/>
  <outline>
    <contour>
      <point x="-10" y="1413" type="line"/>
      <point x="-10" y="1500" type="line"/>
      <point x="187" y="1534" type="line"/>
      <point x="214" y="1533" type="line"/>
      <point x="237" y="1502" type="line"/>
      <point x="232" y="428" type="line"/>
      <point x="230" y="89" type="line"/>
      <point x="156" y="-1" type="line"/>
      <point x="90" y="-1" type="line"/>
      <point x="99" y="427" type="line"/>
      <point x="90" y="1380" type="line"/>
    </contour>
    <contour>
      <point x="194" y="116" type="qcurve"/>
      <point x="228" y="189" type="line"/>
      <point x="238" y="140"/>
      <point x="297" y="89"/>
      <point x="345" y="89" type="qcurve" smooth="yes"/>
      <point x="411" y="89"/>
      <point x="484" y="241"/>
      <point x="484" y="505" type="qcurve" smooth="yes"/>
      <point x="484" y="761"/>
      <point x="416" y="894"/>
      <point x="357" y="894" type="qcurve" smooth="yes"/>
      <point x="309" y="894"/>
      <point x="249" y="835"/>
      <point x="231" y="787" type="qcurve"/>
      <point x="202" y="839" type="line"/>
      <point x="221" y="901"/>
      <point x="325" y="1020"/>
      <point x="412" y="1020" type="qcurve" smooth="yes"/>
      <point x="515" y="1020"/>
      <point x="640" y="788"/>
      <point x="640" y="525" type="qcurve" smooth="yes"/>
      <point x="640" y="259"/>
      <point x="503" y="-12"/>
      <point x="379" y="-12" type="qcurve" smooth="yes"/>
      <point x="312" y="-12"/>
      <point x="213" y="59"/>
    </contour>
  </outline>
</glyph>
<glyph name="c" format="1">
  <advance width="561"/>
  <unicode hex="0063"/>
  <outline>
    <contour>
      <point x="30" y="492" type="qcurve" smooth="yes"/>
      <point x="30" y="756"/>
      <point x="190" y="1022"/>
      <point x="308" y="1022" type="qcurve" smooth="yes"/>
      <point x="374" y="1022"/>
      <point x="468" y="965"/>
      <point x="498" y="910" type="qcurve"/>
      <point x="409" y="820" type="line"/>
      <point x="395" y="861"/>
      <point x="351" y="915"/>
      <point x="306" y="915" type="qcurve" smooth="yes"/>
      <point x="246" y="915"/>
      <point x="182" y="770"/>
      <point x="183" y="496" type="qcurve" smooth="yes"/>
      <point x="183" y="228"/>
      <point x="261" y="99"/>
      <point x="332" y="99" type="qcurve" smooth="yes"/>
      <point x="388" y="99"/>
      <point x="452" y="163"/>
      <point x="475" y="210" type="qcurve"/>
      <point x="543" y="175" type="line"/>
      <point x="518" y="92"/>
      <point x="409" y="-21"/>
      <point x="312" y="-21" type="qcurve" smooth="yes"/>
      <point x="183" y="-21"/>
      <point x="30" y="229"/>
    </contour>
    <contour>
      <point x="393" y="876" type="line"/>
      <point x="440" y="1018" type="line"/>
      <point x="518" y="1018" type="line"/>
      <point x="518" y="724" type="line"/>
      <point x="432" y="724" type="line"/>
    </contour>
  </outline>
</glyph>
<glyph name="d" format="1">
  <advance width="689"/>
  <unicode hex="0064"/>
  <outline>
    <contour>
      <point x="31" y="494" type="qcurve" smooth="yes"/>
      <point x="31" y="767"/>
      <point x="185" y="1021"/>
      <point x="312" y="1021" type="qcurve" smooth="yes"/>
      <point x="373" y="1021"/>
      <point x="480" y="944"/>
      <point x="498" y="891" type="qcurve"/>
      <point x="445" y="837" type="line"/>
      <point x="430" y="878"/>
      <point x="370" y="921"/>
      <point x="326" y="921" type="qcurve" smooth="yes"/>
      <point x="257" y="921"/>
      <point x="185" y="764"/>
      <point x="185" y="511" type="qcurve" smooth="yes"/>
      <point x="185" y="248"/>
      <point x="246" y="87"/>
      <point x="315" y="87" type="qcurve" smooth="yes"/>
      <point x="367" y="87"/>
      <point x="432" y="161"/>
      <point x="450" y="221" type="qcurve"/>
      <point x="508" y="190" type="line"/>
      <point x="484" y="105"/>
      <point x="370" y="-10"/>
      <point x="292" y="-10" type="qcurve" smooth="yes"/>
      <point x="172" y="-10"/>
      <point x="31" y="228"/>
    </contour>
    <contour>
      <point x="340" y="1413" type="line"/>
      <point x="340" y="1500" type="line"/>
      <point x="529" y="1534" type="line"/>
      <point x="554" y="1533" type="line"/>
      <point x="577" y="1502" type="line"/>
      <point x="574" y="515" type="line"/>
      <point x="582" y="112" type="line"/>
      <point x="671" y="74" type="line"/>
      <point x="671" y="0" type="line"/>
      <point x="500" y="0" type="line"/>
      <point x="458" y="56" type="line"/>
      <point x="440" y="139" type="line"/>
      <point x="442" y="514" type="line"/>
      <point x="432" y="1380" type="line"/>
    </contour>
  </outline>
</glyph>
<glyph name="e" format="1">
  <advance width="585"/>
  <unicode hex="0065"/>
  <outline>
    <contour>
      <point x="30" y="500" type="qcurve" smooth="yes"/>
      <point x="30" y="765"/>
      <point x="190" y="1022"/>
      <point x="315" y="1022" type="qcurve" smooth="yes"/>
      <point x="432" y="1022"/>
      <point x="562" y="794"/>
      <point x="573" y="589" type="qcurve"/>
      <point x="437" y="589" type="line"/>
      <point x="434" y="759"/>
      <point x="372" y="913"/>
      <point x="306" y="913" type="qcurve" smooth="yes"/>
      <point x="244" y="913"/>
      <point x="179" y="753"/>
      <point x="180" y="518" type="qcurve" smooth="yes"/>
      <point x="180" y="252"/>
      <point x="261" y="95"/>
      <point x="338" y="95" type="qcurve" smooth="yes"/>
      <point x="395" y="95"/>
      <point x="461" y="154"/>
      <point x="481" y="190" type="qcurve"/>
      <point x="546" y="158" type="line"/>
      <point x="526" y="88"/>
      <point x="418" y="-22"/>
      <point x="325" y="-22" type="qcurve" smooth="yes"/>
      <point x="192" y="-22"/>
      <point x="30" y="230"/>
    </contour>
    <contour>
      <point x="114" y="532" type="line"/>
      <point x="114" y="614" type="line"/>
      <point x="544" y="614" type="line"/>
      <point x="573" y="589" type="line"/>
      <point x="573" y="532" type="line"/>
    </contour>
  </outline>
</glyph>
<glyph name="g" format="1">
  <advance width="627"/>
  <unicode hex="0067"/>
  <outline>
    <contour>
      <point x="-40" y="-220" type="qcurve" smooth="yes"/>
      <point x="-40" y="-131"/>
      <point x="74" y="-13"/>
      <point x="151" y="19" type="qcurve"/>
      <point x="195" y="-8" type="line"/>
      <point x="136" y="-39"/>
      <point x="56" y="-132"/>
      <point x="56" y="-196" type="qcurve" smooth="yes"/>
      <point x="56" y="-271"/>
      <point x="184" y="-347"/>
      <point x="306" y="-347" type="qcurve" smooth="yes"/>
      <point x="443" y="-347"/>
      <point x="567" y="-257"/>
      <point x="567" y="-182" type="qcurve" smooth="yes"/>
      <point x="567" y="-111"/>
      <point x="459" y="-52"/>
      <point x="317" y="-41" type="qcurve" smooth="yes"/>
      <point x="176" y="-27"/>
      <point x="20" y="61"/>
      <point x="20" y="144" type="qcurve" smooth="yes"/>
      <point x="20" y="221"/>
      <point x="103" y="316"/>
      <point x="163" y="340" type="qcurve"/>
      <point x="213" y="285" type="line"/>
      <point x="173" y="262"/>
      <point x="131" y="223"/>
      <point x="131" y="184" type="qcurve" smooth="yes"/>
      <point x="131" y="145"/>
      <point x="229" y="106"/>
      <point x="350" y="96" type="qcurve" smooth="yes"/>
      <point x="509" y="83"/>
      <point x="695" y="-20"/>
      <point x="695" y="-137" type="qcurve" smooth="yes"/>
      <point x="695" y="-276"/>
      <point x="490" y="-445"/>
      <point x="309" y="-445" type="qcurve" smooth="yes"/>
      <point x="146" y="-445"/>
      <point x="-40" y="-322"/>
    </contour>
    <contour>
      <point x="41" y="631" type="qcurve" smooth="yes"/>
      <point x="41" y="822"/>
      <point x="178" y="1022"/>
      <point x="303" y="1022" type="qcurve" smooth="yes"/>
      <point x="429" y="1022"/>
      <point x="572" y="823"/>
      <point x="574" y="635" type="qcurve" smooth="yes"/>
      <point x="575" y="450"/>
      <point x="431" y="221"/>
      <point x="307" y="221" type="qcurve" smooth="yes"/>
      <point x="181" y="221"/>
      <point x="41" y="435"/>
    </contour>
    <contour>
      <point x="189" y="632" type="qcurve" smooth="yes"/>
      <point x="189" y="441"/>
      <point x="251" y="315"/>
      <point x="309" y="315" type="qcurve" smooth="yes"/>
      <point x="370" y="315"/>
      <point x="430" y="439"/>
      <point x="430" y="631" type="qcurve" smooth="yes"/>
      <point x="430" y="819"/>
      <point x="367" y="917"/>
      <point x="310" y="917" type="qcurve" smooth="yes"/>
      <point x="251" y="917"/>
      <point x="189" y="821"/>
    </contour>
    <contour>
      <point x="388" y="943" type="line"/>
      <point x="374" y="999" type="line"/>
      <point x="630" y="1013" type="line"/>
      <point x="630" y="900" type="line"/>
    </contour>
  </outline>
</glyph>
<glyph name="i" format="1">
  <advance width="367"/>
  <unicode hex="0069"/>
  <outline>
    <contour>
      <point x="30" y="0" type="line"/>
      <point x="30" y="74" type="line"/>
      <point x="115" y="112" type="line"/>
      <point x="116" y="527" type="line"/>
      <point x="113" y="856" type="line"/>
      <point x="24" y="886" type="line"/>
      <point x="24" y="973" type="line"/>
      <point x="207" y="1008" type="line"/>
      <point x="243" y="1007" type="line"/>
      <point x="264" y="968" type="line"/>
      <point x="258" y="527" type="line"/>
      <point x="259" y="112" type="line"/>
      <point x="343" y="74" type="line"/>
      <point x="343" y="0" type="line"/>
    </contour>
    <contour>
      <point x="78" y="1324" type="qcurve" smooth="yes"/>
      <point x="78" y="1376"/>
      <point x="129" y="1431"/>
      <point x="177" y="1431" type="qcurve" smooth="yes"/>
      <point x="221" y="1431"/>
      <point x="276" y="1371"/>
      <point x="276" y="1324" type="qcurve" smooth="yes"/>
      <point x="276" y="1272"/>
      <point x="224" y="1217"/>
      <point x="177" y="1217" type="qcurve" smooth="yes"/>
      <point x="132" y="1217"/>
      <point x="78" y="1276"/>
    </contour>
  </outline>
</glyph>
<glyph name="l" format="1">
  <advance width="363"/>
  <unicode hex="006C"/>
  <outline>
    <contour>
      <point x="25" y="0" type="line"/>
      <point x="25" y="74" type="line"/>
      <point x="112" y="112" type="line"/>
      <point x="114" y="527" type="line"/>
      <point x="112" y="1381" type="line"/>
      <point x="8" y="1413" type="line"/>
      <point x="8" y="1500" type="line"/>
      <point x="208" y="1534" type="line"/>
      <point x="238" y="1532" type="line"/>
      <point x="257" y="1501" type="line"/>
      <point x="255" y="527" type="line"/>
      <point x="257" y="112" type="line"/>
      <point x="341" y="74" type="line"/>
      <point x="341" y="0" type="line"/>
    </contour>
  </outline>
</glyph>
<glyph name="m" format="1">
  <advance width="1075"/>
  <unicode hex="006D"/>
  <outline>
    <contour>
      <point x="25" y="0" type="line"/>
      <point x="25" y="74" type="line"/>
      <point x="109" y="112" type="line"/>
      <point x="111" y="534" type="line"/>
      <point x="109" y="853" type="line"/>
      <point x="25" y="886" type="line"/>
      <point x="25" y="973" type="line"/>
      <point x="204" y="1007" type="line"/>
      <point x="233" y="985" type="line"/>
      <point x="253" y="874" type="line"/>
      <point x="251" y="534" type="line"/>
      <point x="253" y="112" type="line"/>
      <point x="326" y="74" type="line"/>
      <point x="326" y="0" type="line"/>
    </contour>
    <contour>
      <point x="250" y="798" type="qcurve"/>
      <point x="222" y="833" type="line"/>
      <point x="245" y="915"/>
      <point x="362" y="1021"/>
      <point x="442" y="1021" type="qcurve" smooth="yes"/>
      <point x="527" y="1021"/>
      <point x="611" y="933"/>
      <point x="611" y="856" type="qcurve" smooth="yes"/>
      <point x="611" y="793"/>
      <point x="609" y="527"/>
      <point x="609" y="527" type="qcurve"/>
      <point x="613" y="112" type="line"/>
      <point x="687" y="74" type="line"/>
      <point x="687" y="0" type="line"/>
      <point x="394" y="0" type="line"/>
      <point x="394" y="74" type="line"/>
      <point x="468" y="112" type="line"/>
      <point x="470" y="530" type="line"/>
      <point x="470" y="785" type="line" smooth="yes"/>
      <point x="470" y="832"/>
      <point x="422" y="887"/>
      <point x="381" y="887" type="qcurve" smooth="yes"/>
      <point x="339" y="887"/>
      <point x="273" y="841"/>
    </contour>
    <contour>
      <point x="608" y="798" type="qcurve"/>
      <point x="579" y="833" type="line"/>
      <point x="603" y="915"/>
      <point x="719" y="1021"/>
      <point x="799" y="1021" type="qcurve" smooth="yes"/>
      <point x="884" y="1021"/>
      <point x="969" y="933"/>
      <point x="969" y="856" type="qcurve" smooth="yes"/>
      <point x="969" y="793"/>
      <point x="966" y="527"/>
      <point x="966" y="527" type="qcurve"/>
      <point x="970" y="112" type="line"/>
      <point x="1053" y="74" type="line"/>
      <point x="1053" y="0" type="line"/>
      <point x="753" y="0" type="line"/>
      <point x="753" y="74" type="line"/>
      <point x="826" y="112" type="line"/>
      <point x="827" y="531" type="line"/>
      <point x="827" y="785" type="line" smooth="yes"/>
      <point x="827" y="833"/>
      <point x="782" y="887"/>
      <point x="738" y="887" type="qcurve" smooth="yes"/>
      <point x="696" y="887"/>
      <point x="630" y="841"/>
    </contour>
  </outline>
</glyph>
<glyph name="n" format="1">
  <advance width="719"/>
  <unicode hex="006E"/>
  <outline>
    <contour>
      <point x="25" y="0" type="line"/>
      <point x="25" y="74" type="line"/>
      <point x="109" y="112" type="line"/>
      <point x="111" y="526" type="line"/>
      <point x="109" y="853" type="line"/>
      <point x="25" y="886" type="line"/>
      <point x="25" y="973" type="line"/>
      <point x="205" y="1007" type="line"/>
      <point x="234" y="985" type="line"/>
      <point x="253" y="876" type="line"/>
      <point x="252" y="526" type="line"/>
      <point x="254" y="112" type="line"/>
      <point x="326" y="74" type="line"/>
      <point x="326" y="0" type="line"/>
    </contour>
    <contour>
      <point x="250" y="798" type="qcurve"/>
      <point x="222" y="833" type="line"/>
      <point x="246" y="915"/>
      <point x="362" y="1021"/>
      <point x="442" y="1021" type="qcurve" smooth="yes"/>
      <point x="527" y="1021"/>
      <point x="611" y="933"/>
      <point x="611" y="856" type="qcurve" smooth="yes"/>
      <point x="611" y="793"/>
      <point x="609" y="527"/>
      <point x="609" y="527" type="qcurve"/>
      <point x="614" y="112" type="line"/>
      <point x="697" y="74" type="line"/>
      <point x="697" y="0" type="line"/>
      <point x="395" y="0" type="line"/>
      <point x="395" y="74" type="line"/>
      <point x="468" y="112" type="line"/>
      <point x="470" y="526" type="line"/>
      <point x="470" y="785" type="line" smooth="yes"/>
      <point x="470" y="834"/>
      <point x="424" y="887"/>
      <point x="381" y="887" type="qcurve" smooth="yes"/>
      <point x="340" y="887"/>
      <point x="272" y="841"/>
    </contour>
  </outline>
</glyph>
<glyph name="p" format="1">
  <advance width="683"/>
  <unicode hex="0070"/>
  <outline>
    <contour>
      <point x="22" y="-429" type="line"/>
      <point x="22" y="-355" type="line"/>
      <point x="105" y="-317" type="line"/>
      <point x="107" y="427" type="line"/>
      <point x="105" y="856" type="line"/>
      <point x="19" y="886" type="line"/>
      <point x="19" y="973" type="line"/>
      <point x="201" y="1007" type="line"/>
      <point x="230" y="985" type="line"/>
      <point x="247" y="879" type="line"/>
      <point x="248" y="427" type="line"/>
      <point x="250" y="-317" type="line"/>
      <point x="341" y="-355" type="line"/>
      <point x="341" y="-429" type="line"/>
    </contour>
    <contour>
      <point x="216" y="96" type="qcurve"/>
      <point x="246" y="165" type="line"/>
      <point x="257" y="130"/>
      <point x="317" y="84"/>
      <point x="359" y="84" type="qcurve" smooth="yes"/>
      <point x="422" y="85"/>
      <point x="494" y="232"/>
      <point x="494" y="506" type="qcurve" smooth="yes"/>
      <point x="494" y="774"/>
      <point x="427" y="895"/>
      <point x="367" y="895" type="qcurve" smooth="yes"/>
      <point x="319" y="895"/>
      <point x="260" y="844"/>
      <point x="245" y="808" type="qcurve"/>
      <point x="223" y="862" type="line"/>
      <point x="244" y="929"/>
      <point x="345" y="1020"/>
      <point x="422" y="1020" type="qcurve" smooth="yes"/>
      <point x="522" y="1020"/>
      <point x="651" y="793"/>
      <point x="651" y="525" type="qcurve" smooth="yes"/>
      <point x="651" y="257"/>
      <point x="521" y="-11"/>
      <point x="398" y="-11" type="qcurve" smooth="yes"/>
      <point x="330" y="-11"/>
      <point x="232" y="56"/>
    </contour>
  </outline>
</glyph>
<glyph name="u" format="1">
  <advance width="718"/>
  <unicode hex="0075"/>
  <outline>
    <contour>
      <point x="19" y="886" type="line"/>
      <point x="19" y="973" type="line"/>
      <point x="192" y="1007" type="line"/>
      <point x="223" y="1006" type="line"/>
      <point x="245" y="971" type="line"/>
      <point x="244" y="473" type="line"/>
      <point x="244" y="287" type="line" smooth="yes"/>
      <point x="244" y="166"/>
      <point x="288" y="105"/>
      <point x="332" y="105" type="qcurve" smooth="yes"/>
      <point x="375" y="105"/>
      <point x="443" y="170"/>
      <point x="466" y="240" type="qcurve"/>
      <point x="500" y="176" type="line"/>
      <point x="480" y="96"/>
      <point x="362" y="-14"/>
      <point x="281" y="-14" type="qcurve" smooth="yes"/>
      <point x="189" y="-14"/>
      <point x="101" y="103"/>
      <point x="101" y="251" type="qcurve" smooth="yes"/>
      <point x="101" y="327"/>
      <point x="104" y="473"/>
      <point x="104" y="473" type="qcurve"/>
      <point x="99" y="854" type="line"/>
    </contour>
    <contour>
      <point x="386" y="886" type="line"/>
      <point x="386" y="973" type="line"/>
      <point x="558" y="1007" type="line"/>
      <point x="587" y="1006" type="line"/>
      <point x="608" y="971" type="line"/>
      <point x="606" y="473" type="line"/>
      <point x="608" y="138" type="line"/>
      <point x="696" y="106" type="line"/>
      <point x="696" y="27" type="line"/>
      <point x="514" y="-7" type="line"/>
      <point x="484" y="17" type="line"/>
      <point x="463" y="121" type="line"/>
      <point x="465" y="473" type="line"/>
      <point x="463" y="854" type="line"/>
    </contour>
  </outline>
</glyph>
<glyph name="w" format="1">
  <advance width="893"/>
  <unicode hex="0077"/>
  <outline>
    <contour>
      <point x="-10" y="917" type="line"/>
      <point x="-10" y="1000" type="line"/>
      <point x="267" y="1000" type="line"/>
      <point x="267" y="917" type="line"/>
      <point x="202" y="878" type="line"/>
      <point x="253" y="559" type="line"/>
      <point x="304" y="236" type="line"/>
      <point x="363" y="535" type="line"/>
      <point x="431" y="883" type="line"/>
      <point x="490" y="760" type="line"/>
      <point x="434" y="509" type="line"/>
      <point x="341" y="-6" type="line"/>
      <point x="228" y="-6" type="line"/>
      <point x="133" y="499" type="line"/>
      <point x="56" y="879" type="line"/>
    </contour>
    <contour>
      <point x="323" y="917" type="line"/>
      <point x="323" y="1000" type="line"/>
      <point x="590" y="1000" type="line"/>
      <point x="590" y="917" type="line"/>
      <point x="517" y="878" type="line"/>
      <point x="573" y="538" type="line"/>
      <point x="621" y="238" type="line"/>
      <point x="678" y="551" type="line"/>
      <point x="733" y="886" type="line"/>
      <point x="668" y="917" type="line"/>
      <point x="668" y="1000" type="line"/>
      <point x="905" y="1000" type="line"/>
      <point x="905" y="917" type="line"/>
      <point x="839" y="882" type="line"/>
      <point x="766" y="532" type="line"/>
      <point x="666" y="-6" type="line"/>
      <point x="553" y="-6" type="line"/>
      <point x="464" y="521" type="line"/>
      <point x="391" y="879" type="line"/>
    </contour>
  </outline>
</glyph>
<glyph name="x" format="1">
  <advance width="656"/>
  <unicode hex="0078"/>
  <outline>
    <contour>
      <point x="1" y="0" type="line"/>
      <point x="1" y="81" type="line"/>
      <point x="82" y="116" type="line"/>
      <point x="271" y="550" type="line"/>
      <point x="297" y="556" type="line"/>
      <point x="429" y="887" type="line"/>
      <point x="358" y="917" type="line"/>
      <point x="358" y="1000" type="line"/>
      <point x="623" y="1000" type="line"/>
      <point x="623" y="917" type="line"/>
      <point x="538" y="882" type="line"/>
      <point x="370" y="486" type="line"/>
      <point x="347" y="482" type="line"/>
      <point x="190" y="112" type="line"/>
      <point x="261" y="81" type="line"/>
      <point x="261" y="0" type="line"/>
    </contour>
    <contour>
      <point x="6" y="917" type="line"/>
      <point x="6" y="1000" type="line"/>
      <point x="297" y="1000" type="line"/>
      <point x="297" y="917" type="line"/>
      <point x="233" y="880" type="line"/>
      <point x="368" y="555" type="line"/>
      <point x="561" y="117" type="line"/>
      <point x="658" y="81" type="line"/>
      <point x="658" y="0" type="line"/>
      <point x="329" y="0" type="line"/>
      <point x="329" y="81" type="line"/>
      <point x="414" y="118" type="line"/>
      <point x="266" y="476" type="line"/>
      <point x="85" y="881" type="line"/>
    </contour>
  </outline>
</glyph>
<glyph name="z" format="1">
  <advance width="543"/>
  <unicode hex="007A"/>
  <outline>
    <contour>
      <point x="15" y="0" type="line"/>
      <point x="15" y="83" type="line"/>
      <point x="342" y="893" type="line"/>
      <point x="164" y="893" type="line"/>
      <point x="131" y="740" type="line"/>
      <point x="38" y="740" type="line"/>
      <point x="38" y="1000" type="line"/>
      <point x="503" y="1000" type="line"/>
      <point x="503" y="918" type="line"/>
      <point x="171" y="107" type="line"/>
      <point x="401" y="107" type="line"/>
      <point x="434" y="259" type="line"/>
      <point x="527" y="259" type="line"/>
      <point x="527" y="0" type="line"/>
    </contour>
  </outline>
</glyph>
<glyph name="braceleft" format="1">
  <advance width="460"/>
  <unicode hex="007B"/>
  <outline>
    <contour>
      <point x="33" y="485" type="line"/>
      <point x="33" y="585" type="line"/>
      <point x="90" y="594" type="line"/>
      <point x="142" y="606"/>
      <point x="194" y="664"/>
      <point x="194" y="742" type="qcurve" smooth="yes"/>
      <point x="194" y="835"/>
      <point x="81" y="1066"/>
      <point x="81" y="1186" type="qcurve" smooth="yes"/>
      <point x="81" y="1342"/>
      <point x="235" y="1510"/>
      <point x="340" y="1510" type="qcurve" smooth="yes"/>
      <point x="382" y="1510"/>
      <point x="427" y="1503"/>
      <point x="451" y="1500" type="qcurve"/>
      <point x="451" y="1395" type="line"/>
      <point x="418" y="1396"/>
      <point x="388" y="1396"/>
      <point x="357" y="1396" type="qcurve" smooth="yes"/>
      <point x="291" y="1396"/>
      <point x="216" y="1300"/>
      <point x="216" y="1198" type="qcurve" smooth="yes"/>
      <point x="216" y="1093"/>
      <point x="323" y="878"/>
      <point x="323" y="786" type="qcurve" smooth="yes"/>
      <point x="323" y="693"/>
      <point x="261" y="578"/>
      <point x="210" y="554" type="qcurve"/>
      <point x="277" y="531"/>
      <point x="323" y="434"/>
      <point x="323" y="345" type="qcurve" smooth="yes"/>
      <point x="323" y="245"/>
      <point x="206" y="-75"/>
      <point x="206" y="-181" type="qcurve" smooth="yes"/>
      <point x="206" y="-283"/>
      <point x="281" y="-382"/>
      <point x="350" y="-382" type="qcurve" smooth="yes"/>
      <point x="381" y="-382"/>
      <point x="415" y="-382"/>
      <point x="448" y="-380" type="qcurve"/>
      <point x="448" y="-484" type="line"/>
      <point x="422" y="-488"/>
      <point x="379" y="-495"/>
      <point x="337" y="-495" type="qcurve" smooth="yes"/>
      <point x="231" y="-495"/>
      <point x="71" y="-328"/>
      <point x="71" y="-169" type="qcurve" smooth="yes"/>
      <point x="71" y="-50"/>
      <point x="193" y="247"/>
      <point x="193" y="373" type="qcurve"/>
      <point x="194" y="485" type="line"/>
    </contour>
  </outline>
</glyph>
<glyph name="braceright" format="1">
  <advance width="460"/>
  <unicode hex="007D"/>
  <outline>
    <contour>
      <point x="427" y="485" type="line"/>
      <point x="266" y="485" type="line"/>
      <point x="267" y="373" type="line" smooth="yes"/>
      <point x="267" y="247"/>
      <point x="389" y="-50"/>
      <point x="389" y="-169" type="qcurve" smooth="yes"/>
      <point x="389" y="-328"/>
      <point x="229" y="-495"/>
      <point x="123" y="-495" type="qcurve" smooth="yes"/>
      <point x="80" y="-495"/>
      <point x="37" y="-488"/>
      <point x="12" y="-484" type="qcurve"/>
      <point x="12" y="-380" type="line"/>
      <point x="45" y="-382"/>
      <point x="79" y="-382"/>
      <point x="110" y="-382" type="qcurve" smooth="yes"/>
      <point x="179" y="-382"/>
      <point x="254" y="-283"/>
      <point x="254" y="-181" type="qcurve" smooth="yes"/>
      <point x="254" y="-75"/>
      <point x="136" y="245"/>
      <point x="136" y="345" type="qcurve" smooth="yes"/>
      <point x="136" y="434"/>
      <point x="183" y="531"/>
      <point x="250" y="554" type="qcurve"/>
      <point x="199" y="578"/>
      <point x="136" y="693"/>
      <point x="136" y="786" type="qcurve" smooth="yes"/>
      <point x="136" y="878"/>
      <point x="244" y="1093"/>
      <point x="244" y="1198" type="qcurve" smooth="yes"/>
      <point x="244" y="1300"/>
      <point x="169" y="1396"/>
      <point x="103" y="1396" type="qcurve" smooth="yes"/>
      <point x="72" y="1396"/>
      <point x="42" y="1396"/>
      <point x="9" y="1395" type="qcurve"/>
      <point x="9" y="1500" type="line"/>
      <point x="33" y="1503"/>
      <point x="78" y="1510"/>
      <point x="120" y="1510" type="qcurve" smooth="yes"/>
      <point x="225" y="1510"/>
      <point x="379" y="1342"/>
      <point x="379" y="1186" type="qcurve" smooth="yes"/>
      <point x="379" y="1066"/>
      <point x="265" y="835"/>
      <point x="265" y="742" type="qcurve" smooth="yes"/>
      <point x="265" y="664"/>
      <point x="318" y="606"/>
      <point x="370" y="594" type="qcurve"/>
      <point x="427" y="585" type="line"/>
    </contour>
  </outline>
</glyph>
